HIERARCHY
ROOT Hips
{
	OFFSET 0.000000 0.000000 0.000000
	CHANNELS 6 Xposition Yposition Zposition Xrotation Yrotation Zrotation
	JOINT LeftUpLeg_virtual
	{
		OFFSET 0.000000 0.000000 0.000000
		CHANNELS 3 Xrotation Yrotation Zrotation
		JOINT LeftUpLeg
		{
			OFFSET 10.205400 -3.823500 0.155100
			CHANNELS 3 Xrotation Yrotation Zrotation
			JOINT LeftLeg
			{
				OFFSET 0.708757 -12.982077 0.567790
				CHANNELS 3 Xrotation Yrotation Zrotation
				JOINT LeftFoot
				{
					OFFSET -0.708756 -10.717838 -2.184338
					CHANNELS 3 Xrotation Yrotation Zrotation
					JOINT LeftToeBase
					{
						OFFSET 0.108149 -7.191104 7.560241
						CHANNELS 3 Xrotation Yrotation Zrotation
						JOINT LeftToe_End
						{
							OFFSET 0.070230 0.081724 4.490308
							CHANNELS 3 Xrotation Yrotation Zrotation
							End Site
							{
								OFFSET 0 0 0
							}
						}
					}
				}
			}
		}
	}
	JOINT RightUpLeg_virtual
	{
		OFFSET 0.000000 0.000000 0.000000
		CHANNELS 3 Xrotation Yrotation Zrotation
		JOINT RightUpLeg
		{
			OFFSET -10.205400 -3.823500 0.005500
			CHANNELS 3 Xrotation Yrotation Zrotation
			JOINT RightLeg
			{
				OFFSET -0.708756 -12.982134 0.610632
				CHANNELS 3 Xrotation Yrotation Zrotation
				JOINT RightFoot
				{
					OFFSET 0.708754 -10.717769 -1.945823
					CHANNELS 3 Xrotation Yrotation Zrotation
					JOINT RightToeBase
					{
						OFFSET -0.108140 -7.191069 7.372968
						CHANNELS 3 Xrotation Yrotation Zrotation
						JOINT RightToe_End
						{
							OFFSET -0.070227 0.081735 4.479403
							CHANNELS 3 Xrotation Yrotation Zrotation
							End Site
							{
								OFFSET 0 0 0
							}
						}
					}
				}
			}
		}
	}
	JOINT Spine_virtual
	{
		OFFSET 0.000000 0.000000 0.000000
		CHANNELS 3 Xrotation Yrotation Zrotation
		JOINT Spine
		{
			OFFSET 0.000000 6.876099 0.125700
			CHANNELS 3 Xrotation Yrotation Zrotation
			JOINT Spine1
			{
				OFFSET 0.000000 5.730043 0.104720
				CHANNELS 3 Xrotation Yrotation Zrotation
				JOINT Spine1_split
				{
					OFFSET 0.000000 5.730043 0.104720
					CHANNELS 3 Xrotation Yrotation Zrotation
					JOINT Spine2
					{
						OFFSET 0.000000 5.730043 0.104720
						CHANNELS 3 Xrotation Yrotation Zrotation
						JOINT Neck_virtual
						{
							OFFSET 0.000000 0.000000 0.000000
							CHANNELS 3 Xrotation Yrotation Zrotation
							JOINT Neck
							{
								OFFSET 0.000000 10.314075 0.188496
								CHANNELS 3 Xrotation Yrotation Zrotation
								JOINT Head
								{
									OFFSET 0.000000 7.643700 -2.377400
									CHANNELS 3 Xrotation Yrotation Zrotation
									JOINT HeadTop_End
									{
										OFFSET 0.000000 43.788605 -13.619600
										CHANNELS 3 Xrotation Yrotation Zrotation
										End Site
										{
											OFFSET 0 0 0
										}
									}
								}
							}
						}
						JOINT LeftShoulder_virtual
						{
							OFFSET 0.000000 0.000000 0.000000
							CHANNELS 3 Xrotation Yrotation Zrotation
							JOINT LeftShoulder
							{
								OFFSET 2.196100 4.412489 0.087492
								CHANNELS 3 Xrotation Yrotation Zrotation
								JOINT LeftShoulder_split
								{
									OFFSET 2.196100 4.412489 0.087492
									CHANNELS 3 Xrotation Yrotation Zrotation
									JOINT LeftArm
									{
										OFFSET 8.771219 -2.981674 -0.026999
										CHANNELS 3 Xrotation Yrotation Zrotation
										JOINT LeftForeArm
										{
											OFFSET 8.512804 0.000000 -0.000000
											CHANNELS 3 Xrotation Yrotation Zrotation
											JOINT LeftHand
											{
												OFFSET 18.484802 0.000000 -0.000000
												CHANNELS 3 Xrotation Yrotation Zrotation
												End Site
												{
													OFFSET 0 0 0
												}
											}
										}
									}
								}
							}
						}
						JOINT RightShoulder_virtual
						{
							OFFSET 0.000000 0.000000 0.000000
							CHANNELS 3 Xrotation Yrotation Zrotation
							JOINT RightShoulder
							{
								OFFSET -2.196100 4.412496 0.070690
								CHANNELS 3 Xrotation Yrotation Zrotation
								JOINT RightShoulder_split
								{
									OFFSET -2.196100 4.412496 0.070690
									CHANNELS 3 Xrotation Yrotation Zrotation
									JOINT RightArm
									{
										OFFSET -8.771282 -2.981682 -0.094208
										CHANNELS 3 Xrotation Yrotation Zrotation
										JOINT RightForeArm
										{
											OFFSET -8.494598 0.000000 0.000000
											CHANNELS 3 Xrotation Yrotation Zrotation
											JOINT RightHand
											{
												OFFSET -18.483803 0.000000 0.000001
												CHANNELS 3 Xrotation Yrotation Zrotation
												End Site
												{
													OFFSET 0 0 0
												}
											}
										}
									}
								}
							}
						}
					}
				}
			}
		}
	}
}
MOTION
Frames: 6
Frame Time: 0.03333333
0.499122 33.767281 -0.137125 0.000000 0.000000 0.000000 -3.968430 -5.835194 -2.965167 -12.675544 12.947301 15.501519 23.668105 2.665168 2.360432 -8.821037 2.420283 -11.145340 -0.540421 0.375519 -1.313838 0.000000 0.000000 0.000000 -3.634464 -3.970021 -3.032414 7.979541 -8.909326 0.306710 6.277669 -6.659951 -3.843476 -7.056608 -2.314685 5.079946 -7.474067 -0.066579 0.086954 0.000000 0.000000 0.000000 -4.179429 -5.749922 -3.275526 2.925583 0.353609 2.544533 1.764628 0.001934 1.794074 1.094263 -0.251387 -0.052076 0.000000 0.000000 0.000000 1.309235 0.481488 1.660723 6.065920 1.131377 -0.131598 -5.368611 0.793437 -0.924970 0.000000 0.000000 0.000000 1.064333 0.606350 1.453982 1.738242 -15.510344 -12.773617 -2.694137 -0.428032 -1.433808 8.761408 -20.122610 -68.136861 -1.856503 -2.642903 0.143621 0.000000 0.000000 0.000000 1.403229 0.514205 1.668856 1.878621 12.069410 15.529707 0.344905 2.538314 -0.991471 12.132312 28.024208 57.446003 0.463288 11.097813 0.782861 0.000000 0.000000 0.000000 
0.540744 33.769745 -0.134396 0.000000 0.000000 0.000000 -3.964084 -5.985650 -2.955428 -12.621857 12.914602 15.503257 23.773286 2.682102 2.290216 -8.914780 2.445148 -11.214053 -0.545345 0.372124 -1.325721 0.000000 0.000000 0.000000 -3.613690 -4.036958 -3.013976 7.961751 -9.030110 0.277042 6.189710 -6.541303 -3.887067 -6.945493 -2.371581 5.030070 -7.315044 -0.124004 0.145583 0.000000 0.000000 0.000000 -4.191226 -5.924134 -3.299738 2.939564 0.332620 2.551140 1.756413 -0.014644 1.800536 1.067069 -0.218083 -0.066189 0.000000 0.000000 0.000000 1.309417 0.482124 1.660271 6.082713 1.160322 -0.096043 -5.405867 0.881332 -0.943563 0.000000 0.000000 0.000000 1.087402 0.589815 1.469537 1.729047 -15.569625 -12.775433 -2.689516 -0.527257 -1.475378 8.673686 -20.125851 -68.203018 -1.863044 -2.712183 0.147691 0.000000 0.000000 0.000000 1.393332 0.502942 1.688153 1.857644 12.091363 15.580107 0.283752 2.539884 -0.973036 12.203290 28.040594 57.348201 0.481180 10.899645 0.817730 0.000000 0.000000 0.000000 
0.576078 33.773586 -0.136559 0.000000 0.000000 0.000000 -3.999158 -6.277146 -2.968312 -12.529317 12.892919 15.598559 24.002888 2.761021 2.192838 -9.120814 2.504953 -11.296757 -0.550317 0.371168 -1.348622 0.000000 0.000000 0.000000 -3.651293 -4.195704 -3.014068 7.850712 -9.157322 0.224752 6.217810 -6.263910 -3.925568 -6.901409 -2.521039 4.967292 -7.143129 -0.169011 0.199013 0.000000 0.000000 0.000000 -4.226004 -6.209593 -3.336509 2.966446 0.321739 2.579719 1.748123 -0.037999 1.801855 1.031432 -0.189542 -0.082691 0.000000 0.000000 0.000000 1.305335 0.473731 1.654487 6.121657 1.211428 -0.059713 -5.464244 1.048479 -1.015025 0.000000 0.000000 0.000000 1.106772 0.569542 1.479772 1.714984 -15.640373 -12.778714 -2.608912 -0.592703 -1.533878 8.608700 -20.014840 -68.287036 -1.845562 -2.778302 0.151124 0.000000 0.000000 0.000000 1.374775 0.487352 1.706713 1.839056 12.183907 15.606374 0.201859 2.556854 -0.961775 12.330665 28.010309 57.209811 0.455332 10.729663 0.883213 0.000000 0.000000 0.000000 
0.599645 33.777912 -0.143660 0.000000 0.000000 0.000000 -4.071299 -6.656193 -2.995980 -12.402044 12.882550 15.765386 24.283956 2.898513 2.074937 -9.406992 2.588382 -11.387918 -0.556164 0.371964 -1.373623 0.000000 0.000000 0.000000 -3.729803 -4.430860 -3.025351 7.643424 -9.283259 0.167843 6.390384 -5.835113 -3.942913 -6.876541 -2.742926 4.941376 -7.006939 -0.203843 0.237057 0.000000 0.000000 0.000000 -4.279365 -6.572616 -3.383803 3.004474 0.322732 2.627861 1.743451 -0.060845 1.799062 1.014554 -0.184842 -0.070868 0.000000 0.000000 0.000000 1.294516 0.461390 1.644523 6.169495 1.274458 -0.024509 -5.537111 1.261217 -1.116762 0.000000 0.000000 0.000000 1.123773 0.548945 1.484766 1.693914 -15.717409 -12.783355 -2.499791 -0.574857 -1.598972 8.574054 -19.776405 -68.358179 -1.815806 -2.810778 0.153412 0.000000 0.000000 0.000000 1.356477 0.470119 1.721453 1.823853 12.335784 15.595156 0.126218 2.575103 -0.952281 12.506000 27.989678 57.051450 0.406605 10.605664 0.956675 0.000000 0.000000 0.000000 
0.615372 33.777786 -0.158936 0.000000 0.000000 0.000000 -4.168190 -7.073725 -3.037092 -12.229325 12.880668 15.979670 24.549650 3.085642 1.945362 -9.720321 2.677915 -11.488674 -0.564571 0.371084 -1.393300 0.000000 0.000000 0.000000 -3.832099 -4.730418 -3.047779 7.353617 -9.400549 0.132911 6.674057 -5.276754 -3.956067 -6.869084 -3.032475 4.957236 -6.962940 -0.233849 0.245900 0.000000 0.000000 0.000000 -4.353000 -6.999351 -3.440931 3.050427 0.336809 2.691511 1.745639 -0.076615 1.794516 1.020076 -0.211268 -0.047353 0.000000 0.000000 0.000000 1.279912 0.452145 1.630820 6.211491 1.340737 0.011192 -5.613779 1.477712 -1.216451 0.000000 0.000000 0.000000 1.143595 0.532669 1.485908 1.668488 -15.795726 -12.776151 -2.375432 -0.471061 -1.668638 8.542036 -19.451023 -68.397870 -1.787053 -2.808354 0.151121 0.000000 0.000000 0.000000 1.347391 0.457458 1.730702 1.812842 12.530774 15.531877 0.038323 2.578845 -0.938608 12.736562 28.048652 56.872796 0.362178 10.547952 1.014888 0.000000 0.000000 0.000000 
0.628168 33.771503 -0.176407 0.000000 0.000000 0.000000 -4.275040 -7.497515 -3.088611 -12.008163 12.878057 16.213752 24.768098 3.307647 1.817020 -9.998449 2.755464 -11.602340 -0.584663 0.368598 -1.403142 0.000000 0.000000 0.000000 -3.938000 -5.066528 -3.079046 7.021998 -9.505231 0.138518 7.049299 -4.634265 -3.980953 -6.921551 -3.392553 4.959637 -6.970632 -0.264881 0.232296 0.000000 0.000000 0.000000 -4.447060 -7.449331 -3.505651 3.098843 0.361949 2.765556 1.756335 -0.078983 1.792040 1.030801 -0.276862 -0.013829 0.000000 0.000000 0.000000 1.266410 0.452213 1.616327 6.245645 1.402824 0.042525 -5.678679 1.643109 -1.291443 0.000000 0.000000 0.000000 1.171758 0.523512 1.485335 1.642833 -15.865445 -12.747853 -2.266044 -0.308860 -1.767689 8.501499 -19.087560 -68.400602 -1.766519 -2.771805 0.144256 0.000000 0.000000 0.000000 1.349475 0.453278 1.736215 1.804382 12.752419 15.417588 -0.049875 2.576047 -0.913883 13.002394 28.213954 56.702851 0.342996 10.567791 1.037354 0.000000 0.000000 0.000000 
